/* XPM */
static char * pyscrabble_xpm[] = {
"48 48 265 2",
"  	c None",
". 	c #FEFEFD",
"+ 	c #F1E6D7",
"@ 	c #ECDDBF",
"# 	c #ECDEC2",
"$ 	c #ECDEC5",
"% 	c #EEE3D0",
"& 	c #F1E6DB",
"* 	c #F6F2EB",
"= 	c #E4D3BD",
"- 	c #DEC7A8",
"; 	c #E0CAAE",
"> 	c #EADCCD",
", 	c #FEFEF9",
"' 	c #EDE0C5",
") 	c #EDE1D2",
"! 	c #E9DBCA",
"~ 	c #E6D29B",
"{ 	c #FBF3AD",
"] 	c #FEF7B2",
"^ 	c #FEF9B5",
"/ 	c #FEF9B9",
"( 	c #FEF9BD",
"_ 	c #FEFAC1",
": 	c #FEFAC5",
"< 	c #F5EABA",
"[ 	c #DFC8A9",
"} 	c #F8F3EE",
"| 	c #F4EDE5",
"1 	c #F3EBE4",
"2 	c #E9D69D",
"3 	c #FFFDB5",
"4 	c #FEF9B2",
"5 	c #FFFCC1",
"6 	c #FFFDC5",
"7 	c #FFFDC9",
"8 	c #FFFED1",
"9 	c #FEFACD",
"0 	c #E4CEB3",
"a 	c #F3EFEB",
"b 	c #E3D0B4",
"c 	c #FEFAC9",
"d 	c #FFFDD5",
"e 	c #F9EBC0",
"f 	c #C9C5C1",
"g 	c #E1CAA2",
"h 	c #FEFAD1",
"i 	c #FFF5CD",
"j 	c #AEAA9E",
"k 	c #9B9287",
"l 	c #EADBCC",
"m 	c #FFFECD",
"n 	c #FFFAD5",
"o 	c #FFFCD9",
"p 	c #90867B",
"q 	c #F6F6F6",
"r 	c #FFFDBA",
"s 	c #BAB68D",
"t 	c #68664E",
"u 	c #6C6A54",
"v 	c #959375",
"w 	c #DEDCB1",
"x 	c #79785D",
"y 	c #222329",
"z 	c #787773",
"A 	c #75746E",
"B 	c #6A6866",
"C 	c #242426",
"D 	c #010202",
"E 	c #B0AE90",
"F 	c #FFFDBD",
"G 	c #28292A",
"H 	c #EFEEC2",
"I 	c #DAD7B2",
"J 	c #131314",
"K 	c #1D1D1B",
"L 	c #F4F1C8",
"M 	c #FFFCDD",
"N 	c #222224",
"O 	c #ECE9BE",
"P 	c #6E6D5C",
"Q 	c #C6C3A6",
"R 	c #FFFCE1",
"S 	c #E1CAA5",
"T 	c #7A7861",
"U 	c #767563",
"V 	c #D0CDB2",
"W 	c #FFF8D9",
"X 	c #ECEACA",
"Y 	c #E3E1BB",
"Z 	c #22211C",
"` 	c #676866",
" .	c #F5F2D4",
"..	c #7E7C65",
"+.	c #5E5D4E",
"@.	c #686755",
"#.	c #2B2B27",
"$.	c #57585B",
"%.	c #DAD9C5",
"&.	c #FFFDE5",
"*.	c #93897E",
"=.	c #FDFDFD",
"-.	c #353638",
";.	c #8B8A84",
">.	c #84827C",
",.	c #88877F",
"'.	c #BBBAAB",
").	c #FBF1DC",
"!.	c #958169",
"~.	c #BEBAB1",
"{.	c #FCFAF9",
"].	c #7B7965",
"^.	c #FEFEE9",
"/.	c #F8EFD6",
"(.	c #AD9C7A",
"_.	c #ECE0AB",
":.	c #EAD3A9",
"<.	c #E7D5C2",
"[.	c #F8EEDA",
"}.	c #AC9B78",
"|.	c #EBE8B3",
"1.	c #FAF4BD",
"2.	c #E6D4A6",
"3.	c #F0E5DB",
"4.	c #212122",
"5.	c #FFFEED",
"6.	c #AB9B78",
"7.	c #ECDCAD",
"8.	c #E1CDAD",
"9.	c #FBF9E5",
"0.	c #FFFFF1",
"a.	c #E2CDA9",
"b.	c #C5C3AA",
"c.	c #B2B1A5",
"d.	c #F3F2DD",
"e.	c #A4A395",
"f.	c #8A897F",
"g.	c #CCCABC",
"h.	c #FFFFF5",
"i.	c #F9F5C4",
"j.	c #E6D4AB",
"k.	c #F1E8DE",
"l.	c #E1CBA8",
"m.	c #FCFAE8",
"n.	c #9F9E95",
"o.	c #EEE0B8",
"p.	c #ECDFD1",
"q.	c #E5E4D6",
"r.	c #7E7C75",
"s.	c #B0AFA5",
"t.	c #ECDDBC",
"u.	c #FAF5E3",
"v.	c #F5F4E4",
"w.	c #888781",
"x.	c #86765D",
"y.	c #E6E4B5",
"z.	c #F3E4BE",
"A.	c #D2CDC9",
"B.	c #E9D5BE",
"C.	c #96958D",
"D.	c #DEDDD3",
"E.	c #EFE1CE",
"F.	c #43392C",
"G.	c #DAD8AD",
"H.	c #BDB1A1",
"I.	c #E8D4B0",
"J.	c #9A866E",
"K.	c #D2CFA7",
"L.	c #D8D4AF",
"M.	c #D7D3AF",
"N.	c #C4B39A",
"O.	c #DAC5A5",
"P.	c #AD987C",
"Q.	c #3C372A",
"R.	c #B6B494",
"S.	c #848269",
"T.	c #6E6D6B",
"U.	c #E8E4C3",
"V.	c #A1927F",
"W.	c #DEDDDD",
"X.	c #B5B4B4",
"Y.	c #82776A",
"Z.	c #94836E",
"`.	c #93816D",
" +	c #9A886F",
".+	c #9B8972",
"++	c #92816A",
"@+	c #635844",
"#+	c #464435",
"$+	c #191916",
"%+	c #7B7A68",
"&+	c #CDCAA6",
"*+	c #3D3C33",
"=+	c #3F3F43",
"-+	c #FCEFCD",
";+	c #71685E",
">+	c #D9D9D9",
",+	c #9D9D9D",
"'+	c #858585",
")+	c #8C8B8B",
"!+	c #645C51",
"~+	c #7D7B5E",
"{+	c #78775F",
"]+	c #515042",
"^+	c #EEECD2",
"/+	c #C4B295",
"(+	c #EBEBEB",
"_+	c #F9F9F9",
":+	c #D5D4D3",
"<+	c #71715F",
"[+	c #050509",
"}+	c #585859",
"|+	c #D0CDBC",
"1+	c #FCF4D4",
"2+	c #796959",
"3+	c #A1A1A1",
"4+	c #4C4B3F",
"5+	c #656462",
"6+	c #FAF8D9",
"7+	c #5D5853",
"8+	c #FBF8F4",
"9+	c #CCCAAC",
"0+	c #8C7B67",
"a+	c #3D3D3F",
"b+	c #C4C4C4",
"c+	c #DCDAB8",
"d+	c #AB977E",
"e+	c #7D7B79",
"f+	c #F1F1F1",
"g+	c #8A8873",
"h+	c #1F1F24",
"i+	c #D8D7C0",
"j+	c #C8B296",
"k+	c #E5E5E5",
"l+	c #EDDBC6",
"m+	c #FFF9DF",
"n+	c #726556",
"o+	c #CEBA9A",
"p+	c #DBC7AB",
"q+	c #A39483",
"r+	c #E0CEA7",
"s+	c #897A69",
"t+	c #939285",
"u+	c #908F84",
"v+	c #F0E1C7",
"w+	c #CBCBCB",
"x+	c #7B7064",
"y+	c #B4A186",
"z+	c #C8C7B5",
"A+	c #AB9881",
"B+	c #767573",
"C+	c #78716A",
"D+	c #9B9A8E",
"E+	c #6B5F54",
"F+	c #BABABA",
"G+	c #857767",
"H+	c #A6A59A",
"I+	c #F6E9CB",
"J+	c #FFF9E3",
"K+	c #545353",
"L+	c #B6A38A",
"M+	c #C8B69D",
"N+	c #464544",
"O+	c #939393",
"P+	c #ABABAB",
"  . + @ # # # $ $ % .                                                                           ",
"  % . & * = - - - - - - - - - - - - - - - - - - ; > ,                                           ",
"  ' ) ! ~ { ] ] ] ] ^ ^ / / / / ( ( ( _ _ _ : : : < [ }                                         ",
"  | 1 2 3 4 4 ^ ^ ^ / / / ( ( ( _ 5 5 6 6 7 7 7 7 8 9 0                                         ",
"  a b 4 4 4 ^ ^ ^ / / / ( ( ( _ _ _ : : : c c c 9 9 d e f                                       ",
"  > g 3 4 ^ ^ ^ / / / ( ( ( _ _ _ : : c c c c 9 9 h d i j                                       ",
"  > g 3 ^ ^ / / / / ( ( _ _ _ _ : : c c c 9 9 9 h h d 9 k                                       ",
"  l g 3 ^ / / / ( ( ( 6 m m m 8 8 m c c 9 9 h h h n o h p q                                     ",
"  l g r / / / ( ( ( 6 s t u u u v w 8 9 9 h h h n n o h p q                                     ",
"  l g r / / ( ( _ _ m x y z A B C D E o h h h n n d o n p q                                     ",
"  l g F ( ( ( _ _ _ m x G H 8 8 I J K L d n n n o o M n p q                                     ",
"  l g F ( ( _ _ _ : 8 x N O m m M P D Q M n n o o o R n p q                                     ",
"  l S 5 _ _ _ _ : : d T N O 8 9 R U J V M d o o M M R W p q                                     ",
"  l S 5 _ _ : : : c d T C X R R Y Z `  .o o o M M M R W p q                                     ",
"  l S 6 _ : : : c c d ..D +.@.+.#.$.%.o o o M M M R &.W *.=.                                    ",
"  l S 6 : : c c c 9 o T -.;.>.,.'. .o o M M M M R R &.).!.~.{.                                  ",
"  l S 6 : c c c 9 9 M ].C X R M M o o M M M R R R &.^./.(._.:.<.*                               ",
"  l S 7 c c c 9 9 h M ].N X o o o o M M M R R &.&.&.^.[.}.|.6 1.2.0 3.                          ",
"  l S 7 c c 9 9 h h M ].4.X M o M M M M R R &.&.&.^.5.[.6.|.6 6 6 _ 7.8.> ,                     ",
"  l S m 9 9 h h h h R ].G X M M M M R R R &.&.9.9.0.5.[.6.|.6 : : 6 7 c < a.= }                 ",
"  l S m 9 9 h h n n o b.c. .M M M R R R &.^.d.e.f.g.h.[.6.|.6 : : c c 7 m m i.j.0 k.=.          ",
"  l l.8 h h h n n n o M R M M M R R &.&.&.^.^.m.g.n., ).}.|.7 : c c c c 9 9 8 d 9 o.8.p.        ",
"  > l.8 h h n n d o o M M M R R R &.&.&.^.^.0.q.r.s., ).(.|.7 c c c c 9 9 9 h h d o o t.=       ",
"  p.a.d n n n o o o M M M R R R &.&.&.^.^.5.u.v.q.w., u.x.y.7 c c 9 9 9 h h h h n n d M z.A.    ",
"  } B.h d n o o o M M M R R &.&.&.&.^.^.5.0.q.C.C.D.=.E.F.G.m c 9 9 d d h h h n n n d o R H.    ",
"    1 I.R o o M M R R R &.&.&.^.^.^.5.5.5.5.0.h., =.0.J.D K.8 9 8 o L.M.h d n n n o o o &.N.q   ",
"      ~.O.o R R R &.&.&.^.^.^.5.5.5.5.5.5.0.0.0.h.[.P.Q.D R.d d d S.K T.U.o n d o o o M &.V.W.  ",
"        X.Y.Z.Z.Z.Z.Z.Z.Z.Z.Z.Z.`.J. + + +.+.+.+++@+#+S.$+%+^.&+*+=+~.o o n o o o M M R -+;+>+  ",
"          >+,+'+'+'+'+'+'+'+'+)+!+~+x x x x x x {+S.R.9 ]+#...C ;.^+o d d o o o M M M ^./+B (+  ",
"            =._+_+_+_+_+_+_+  :+2._ 1.i.i.i.i.i.i.c 8 M <+[+}+|+o o n o o o o M M M R 1+2+3+    ",
"                              B.1.6 6 7 7 7 7 m m m 8 o 4+5+6+o d n o o o M M M M R ^.O.7+>+    ",
"                            8+j.7 : : c c c c 9 9 9 d 9+J j o n n o o o M M M M R R &.0+)+_+    ",
"                            > < 7 c c c c 9 9 9 h h M P a+X o d o o o M M M M R R ^.t.7+b+      ",
"                            8.7 c c c c 9 9 9 h h d c+$+C.o o o o M M M M R R R &.5.d+e+f+      ",
"                          {.a.m c c c 9 9 9 h h h M g+h+i+M o o M M M M R R R &.^.1+!+X.        ",
"                          =.a.m c 9 9 9 h h h h n o 9+e.1+o o M M M M R R R &.&.5.j+5+k+        ",
"                            l+i.8 9 9 h h h h n n n M R o M M M M R R R &.&.&.^.m+n+,+          ",
"                            a o+8 d 8 h h n n n n o o o M M M M R R R &.&.&.&.0.p+7+:+          ",
"                              W.q+r+h o o n n d o o o M M M M R R R &.5.&.&.^.^.s+)+_+          ",
"                                k+>.s+o+i M M o o o M M M M R R R 5.d.t+u+0.0.v+!+w+            ",
"                                  q w+)+x+y+z.R R R M M R R R &.^.z+'.r.c.h.0.A+B+f+            ",
"                                      =.W.3+C+.+8.M &.&.R R &.&.^.;.D+r.u.0.).E+X.              ",
"                                            (+F+e+G+/+1+^.^.&.&.^.h.H+B+v., j+5+k+              ",
"                                                q w+;.x+y+I+^.5.5.5.q.* h.u.2+,+                ",
"                                                    _+W.3+C+.+b &.h., , J+.+K+:+                ",
"                                                          (+F+e+s+L+M+L+n+N+,+_+                ",
"                                                              q w+O+5+}+T.P+q                   ",
"                                                                  q >+w+>+_+                    "};

